<?xml version="1.0" encoding="UTF-8" standalone="no"?>
<!-- Created with Inkscape (http://www.inkscape.org/) -->

<svg
   width="175.39929mm"
   height="51.526791mm"
   viewBox="0 0 175.39929 51.526791"
   version="1.1"
   id="svg1"
   xml:space="preserve"
   inkscape:version="1.4.2 (f4327f4, 2025-05-13)"
   sodipodi:docname="logo_label.svg"
   xmlns:inkscape="http://www.inkscape.org/namespaces/inkscape"
   xmlns:sodipodi="http://sodipodi.sourceforge.net/DTD/sodipodi-0.dtd"
   xmlns:xlink="http://www.w3.org/1999/xlink"
   xmlns="http://www.w3.org/2000/svg"
   xmlns:svg="http://www.w3.org/2000/svg"><sodipodi:namedview
     id="namedview1"
     pagecolor="#ffffff"
     bordercolor="#000000"
     borderopacity="0.25"
     inkscape:showpageshadow="2"
     inkscape:pageopacity="0.0"
     inkscape:pagecheckerboard="0"
     inkscape:deskcolor="#d1d1d1"
     inkscape:document-units="mm"
     inkscape:zoom="1.4378367"
     inkscape:cx="158.22381"
     inkscape:cy="206.56031"
     inkscape:window-width="1132"
     inkscape:window-height="1032"
     inkscape:window-x="57"
     inkscape:window-y="0"
     inkscape:window-maximized="0"
     inkscape:current-layer="layer1" /><defs
     id="defs1"><rect
       x="272.44901"
       y="458.34378"
       width="522.27588"
       height="142.61771"
       id="rect4" /><rect
       x="273.43256"
       y="475.06448"
       width="476.04807"
       height="107.20917"
       id="rect3" /><rect
       x="320.15216"
       y="466.21234"
       width="584.24078"
       height="132.78201"
       id="rect2" /><linearGradient
       id="linearGradient9"
       inkscape:collect="always"><stop
         style="stop-color:#a4a4a4;stop-opacity:1;"
         offset="0"
         id="stop10" /><stop
         style="stop-color:#bfbfbf;stop-opacity:1;"
         offset="1"
         id="stop11" /></linearGradient><linearGradient
       id="linearGradient8"
       inkscape:collect="always"><stop
         style="stop-color:#c6941f;stop-opacity:0.46000001;"
         offset="0"
         id="stop8" /><stop
         style="stop-color:#d8de3b;stop-opacity:0.87;"
         offset="1"
         id="stop9" /></linearGradient><radialGradient
       inkscape:collect="always"
       xlink:href="#linearGradient8"
       id="radialGradient9"
       cx="76.157379"
       cy="108.45451"
       fx="76.157379"
       fy="108.45451"
       r="17.945673"
       gradientTransform="matrix(1.4644222,0,0,1.4937082,-35.369183,-53.546353)"
       gradientUnits="userSpaceOnUse" /><radialGradient
       inkscape:collect="always"
       xlink:href="#linearGradient9"
       id="radialGradient11"
       cx="512"
       cy="448.60953"
       fx="512"
       fy="448.60953"
       r="507.12381"
       gradientTransform="matrix(1.3214486,-0.27552742,0.14327264,0.68714552,-228.85515,281.41953)"
       gradientUnits="userSpaceOnUse" /></defs><g
     inkscape:label="LunaArcSyncLabel"
     inkscape:groupmode="layer"
     id="layer1"
     transform="translate(-17.69607,-113.2028)"><g
       inkscape:label="LunaArcSyncLogo"
       id="layer1-6"
       style="display:inline"
       transform="matrix(0.54344248,0,0,0.54344248,2.7178078,82.449089)"><rect
         style="display:inline;fill:#6e85b7;fill-opacity:1;stroke-width:3.565;stroke-opacity:0.714859"
         id="rect8"
         width="60.457291"
         height="60.457291"
         x="46.65324"
         y="74.59465"
         inkscape:label="background" /><path
         d="M 828.95238,326.70476 C 785.06667,190.17143 658.28571,92.647619 512,92.647619 365.71429,92.647619 234.05714,190.17143 190.17143,326.70476 82.895238,351.08571 4.87619,448.60952 4.87619,560.7619 c 0,136.53334 107.27619,243.80953 243.80952,243.80953 V 707.04762 C 170.66667,707.04762 102.4,643.65714 102.4,560.7619 c 0,-73.14285 58.51429,-136.53333 131.65714,-146.28571 L 273.06667,409.6 277.94286,375.46667 C 297.44762,263.31429 394.97143,185.29524 512,185.29524 c 112.15238,0 209.67619,78.01905 229.18095,190.17143 l 4.87619,39.00952 h 39.00953 C 863.08571,419.35238 921.6,482.74286 921.6,560.7619 c 0,82.89524 -63.39048,146.28572 -146.28571,146.28572 v 97.52381 c 136.53333,0 243.80951,-107.27619 243.80951,-243.80953 0,-112.15238 -78.01904,-209.67619 -190.17142,-234.05714 z"
         p-id="25202"
         id="path1-5"
         style="display:inline;fill:url(#radialGradient11);fill-opacity:1"
         inkscape:label="cloud"
         transform="matrix(0.0284037,0,0,0.0284037,53.936497,99.966654)" /><path
         d="m 64.059941,120.4261 c 0.01356,-0.59255 0.135592,-1.16745 0.364745,-1.70847 0.234574,-0.55591 0.570843,-1.05355 0.999314,-1.48338 0.42847,-0.42982 0.92745,-0.76609 1.483379,-1.00066 0.574911,-0.2427 1.185077,-0.36609 1.815579,-0.36609 0.630505,0 1.240669,0.12337 1.814223,0.36609 0.554572,0.23457 1.053552,0.57084 1.482024,1.00066 0.134235,0.13419 0.260338,0.27662 0.376946,0.42576 l -0.816266,0.63729 c -0.07186,0.0555 -0.04746,0.16949 0.04068,0.1912 l 2.382354,0.58304 c 0.0678,0.0163 0.134235,-0.0352 0.134235,-0.10448 l 0.01082,-2.45286 c 0,-0.0909 -0.10441,-0.14242 -0.174916,-0.0854 l -0.764738,0.59796 c -1.042704,-1.33423 -2.664388,-2.18982 -4.486746,-2.18982 -3.106418,0 -5.633856,2.48948 -5.69216,5.58369 -0.0013,0.0611 0.04746,0.11125 0.108479,0.11125 h 0.813552 c 0.05966,0 0.107123,-0.0475 0.108479,-0.10576 z m 10.250772,0.10576 H 73.49716 c -0.05966,0 -0.107123,0.0475 -0.108479,0.10577 -0.01356,0.59253 -0.135591,1.16743 -0.364745,1.70846 -0.234573,0.55593 -0.570842,1.0549 -0.999314,1.48338 -0.42847,0.42847 -0.92745,0.76609 -1.483378,1.00067 -0.574911,0.24271 -1.185074,0.36609 -1.81558,0.36609 -0.630503,0 -1.240667,-0.12337 -1.815579,-0.36609 -0.554573,-0.23458 -1.053551,-0.57086 -1.482022,-1.00067 -0.134236,-0.13419 -0.260339,-0.27661 -0.376946,-0.42576 l 0.816265,-0.63728 c 0.07187,-0.0555 0.04746,-0.1695 -0.04068,-0.19119 l -2.382356,-0.58304 c -0.0678,-0.0163 -0.134235,0.0352 -0.134235,0.10447 l -0.0095,2.45422 c 0,0.0909 0.10441,0.14242 0.174914,0.0854 l 0.764739,-0.59795 c 1.042705,1.33288 2.664386,2.18845 4.486746,2.18845 3.107773,0 5.633855,-2.49082 5.69216,-5.58369 0.0013,-0.0611 -0.04746,-0.11125 -0.108479,-0.11125 z"
         p-id="25351"
         id="path1"
         style="fill:#13237b;fill-opacity:1;stroke-width:0.0135592"
         inkscape:label="sync" /><path
         id="path1-52"
         style="display:inline;fill:url(#radialGradient9);fill-opacity:1;stroke-width:0.0516764"
         d="m 83.089775,83.234951 c -9.742774,0 -17.679635,8.271539 -17.86661,18.008719 0.539037,-0.20431 1.448824,-0.7134 2.487703,-0.5209 0,-7.85849 6.018819,-14.841985 15.378907,-14.841985 1.157552,0 2.149738,0.165369 3.307291,0.330729 -1.322917,2.14974 -2.149739,4.630207 -2.149739,7.110677 0,7.276049 6.118491,13.394529 13.394531,13.229169 -2.069014,5.88873 -7.50791,9.93964 -13.810527,10.23555 -0.04732,0.82795 -0.234323,1.61271 -0.538468,2.33216 8.417114,-0.0167 15.509254,-5.6347 17.325557,-13.89063 l 0.49609,-1.81901 -1.819006,0.49609 c -0.66146,0.16537 -1.157544,0.16537 -1.653646,0.16537 -5.95312,0 -10.748698,-4.795574 -10.748698,-10.748699 0,-2.64583 0.992187,-5.126297 2.645833,-7.110677 l 1.157552,-1.322917 -1.81901,-0.661458 c -1.81901,-0.66146 -3.803385,-0.992188 -5.78776,-0.992188 z"
         sodipodi:nodetypes="sccscsccccccssccss"
         inkscape:label="luna" /></g><rect
       style="fill:#13237b;stroke-width:2.15679;stroke-opacity:0.714859"
       id="rect1"
       width="1.0409453"
       height="29.146467"
       x="68.178688"
       y="124.84129"
       inkscape:label="separator" /><text
       xml:space="preserve"
       transform="matrix(0.26458333,0,0,0.26458333,2.8625996,17.458597)"
       id="text3"
       style="font-size:96px;line-height:0;font-family:'LXGW WenKai Mono';-inkscape-font-specification:'LXGW WenKai Mono';text-align:start;letter-spacing:9px;word-spacing:0px;writing-mode:lr-tb;direction:ltr;white-space:pre;shape-inside:url(#rect4);display:inline;fill:#13237b;stroke-width:13.474;stroke-opacity:0.714859"
       inkscape:label="label"><tspan
         x="272.44922"
         y="494.82375"
         id="tspan1">泠月案阁</tspan></text></g></svg>
